<?xml version="1.0" encoding="utf-8"?>
<!-- Generator: Adobe Illustrator 16.0.0, SVG Export Plug-In . SVG Version: 6.00 Build 0)  -->
<!DOCTYPE svg PUBLIC "-//W3C//DTD SVG 1.1//EN" "http://www.w3.org/Graphics/SVG/1.1/DTD/svg11.dtd">
<svg version="1.1" id="Слой_1" xmlns="http://www.w3.org/2000/svg" xmlns:xlink="http://www.w3.org/1999/xlink" x="0px" y="0px"
	 width="563.971px" height="667.054px" viewBox="0 21.267 563.971 667.054" enable-background="new 0 21.267 563.971 667.054"
	 xml:space="preserve">
<g opacity="0.6">
	<g>
		<line fill="none" x1="302.43" y1="612.826" x2="360.251" y2="612.826"/>
		<g>
			<g>
				<line fill="none" x1="302.43" y1="612.826" x2="302.43" y2="599.34"/>
				<line fill="none" x1="313.994" y1="612.826" x2="313.994" y2="599.34"/>
				<line fill="none" x1="325.559" y1="612.826" x2="325.559" y2="599.34"/>
				<line fill="none" x1="337.122" y1="612.826" x2="337.122" y2="599.34"/>
				<line fill="none" x1="348.687" y1="612.826" x2="348.687" y2="599.34"/>
				<line fill="none" x1="360.251" y1="612.826" x2="360.251" y2="599.34"/>
			</g>
		</g>
	</g>
	<g>
		<line fill="none" x1="302.43" y1="612.826" x2="302.43" y2="73.421"/>
		<g>
			<g>
				<line fill="none" x1="302.43" y1="594.844" x2="303.876" y2="594.844"/>
				<line fill="none" x1="302.43" y1="558.883" x2="303.876" y2="558.883"/>
				<line fill="none" x1="302.43" y1="522.924" x2="303.876" y2="522.924"/>
				<line fill="none" x1="302.43" y1="486.965" x2="303.876" y2="486.965"/>
				<line fill="none" x1="302.43" y1="451.004" x2="303.876" y2="451.004"/>
				<line fill="none" x1="302.43" y1="415.045" x2="303.876" y2="415.045"/>
				<line fill="none" x1="302.43" y1="379.084" x2="303.876" y2="379.084"/>
				<line fill="none" x1="302.43" y1="343.123" x2="303.876" y2="343.123"/>
				<line fill="none" x1="302.43" y1="307.163" x2="303.876" y2="307.163"/>
				<line fill="none" x1="302.43" y1="271.201" x2="303.876" y2="271.201"/>
				<line fill="none" x1="302.43" y1="235.241" x2="303.876" y2="235.241"/>
				<line fill="none" x1="302.43" y1="199.281" x2="303.876" y2="199.281"/>
				<line fill="none" x1="302.43" y1="163.32" x2="303.876" y2="163.32"/>
				<line fill="none" x1="302.43" y1="127.36" x2="303.876" y2="127.36"/>
				<line fill="none" x1="302.43" y1="91.401" x2="303.876" y2="91.401"/>
			</g>
		</g>
	</g>
	<g>
		<g>
			<g>
				<rect x="302.43" y="78.456" fill="#F1F2F2" width="26.75" height="25.892"/>
				<rect x="302.43" y="114.416" fill="#F1F2F2" width="23.826" height="25.892"/>
				<rect x="302.43" y="150.376" fill="#F1F2F2" width="21.404" height="25.892"/>
				<rect x="302.43" y="186.337" fill="#F1F2F2" width="17.411" height="25.892"/>
				<rect x="302.43" y="222.297" fill="#F1F2F2" width="15.972" height="25.892"/>
				<rect x="302.43" y="258.256" fill="#F1F2F2" width="14.814" height="25.892"/>
				<rect x="302.43" y="294.216" fill="#F1F2F2" width="13.313" height="25.892"/>
				<rect x="302.43" y="330.176" fill="#F1F2F2" width="13.179" height="25.895"/>
				<rect x="302.43" y="366.137" fill="#F1F2F2" width="11.324" height="25.893"/>
				<rect x="302.43" y="402.098" fill="#F1F2F2" width="10.953" height="25.895"/>
				<rect x="302.43" y="438.057" fill="#F1F2F2" width="10.778" height="25.896"/>
				<rect x="302.43" y="474.018" fill="#F1F2F2" width="10.299" height="25.895"/>
				<rect x="302.43" y="509.979" fill="#F1F2F2" width="10.212" height="25.893"/>
				<rect x="302.43" y="545.938" fill="#F1F2F2" width="10.124" height="25.895"/>
				<rect x="302.43" y="581.898" fill="#F1F2F2" width="8.945" height="25.893"/>
			</g>
		</g>
	</g>
</g>
<g opacity="0.6">
	<g>
		<line fill="none" x1="261.923" y1="612.391" x2="204.104" y2="612.391"/>
		<g>
			<g>
				<line fill="none" x1="261.923" y1="612.391" x2="261.923" y2="598.908"/>
				<line fill="none" x1="252.287" y1="612.391" x2="252.287" y2="598.908"/>
				<line fill="none" x1="242.651" y1="612.391" x2="242.651" y2="598.908"/>
				<line fill="none" x1="233.013" y1="612.391" x2="233.013" y2="598.908"/>
				<line fill="none" x1="223.377" y1="612.391" x2="223.377" y2="598.908"/>
				<line fill="none" x1="213.74" y1="612.391" x2="213.74" y2="598.908"/>
				<line fill="none" x1="204.104" y1="612.391" x2="204.104" y2="598.908"/>
			</g>
		</g>
	</g>
	<g>
		<line fill="none" x1="261.923" y1="612.391" x2="261.923" y2="72.988"/>
		<g>
			<g>
				<line fill="none" x1="261.923" y1="594.414" x2="260.479" y2="594.414"/>
				<line fill="none" x1="261.923" y1="558.453" x2="260.479" y2="558.453"/>
				<line fill="none" x1="261.923" y1="522.492" x2="260.479" y2="522.492"/>
				<line fill="none" x1="261.923" y1="486.533" x2="260.479" y2="486.533"/>
				<line fill="none" x1="261.923" y1="450.572" x2="260.479" y2="450.572"/>
				<line fill="none" x1="261.923" y1="414.611" x2="260.479" y2="414.611"/>
				<line fill="none" x1="261.923" y1="378.652" x2="260.479" y2="378.652"/>
				<line fill="none" x1="261.923" y1="342.691" x2="260.479" y2="342.691"/>
				<line fill="none" x1="261.923" y1="306.731" x2="260.479" y2="306.731"/>
				<line fill="none" x1="261.923" y1="270.77" x2="260.479" y2="270.77"/>
				<line fill="none" x1="261.923" y1="234.809" x2="260.479" y2="234.809"/>
				<line fill="none" x1="261.923" y1="198.849" x2="260.479" y2="198.849"/>
				<line fill="none" x1="261.923" y1="162.888" x2="260.479" y2="162.888"/>
				<line fill="none" x1="261.923" y1="126.928" x2="260.479" y2="126.928"/>
				<line fill="none" x1="261.923" y1="90.968" x2="260.479" y2="90.968"/>
			</g>
		</g>
	</g>
	<g>
		<g>
			<g>
				<rect x="204.932" y="78.024" fill="#F1F2F2" width="56.991" height="25.892"/>
				<rect x="212.809" y="113.984" fill="#F1F2F2" width="49.114" height="25.892"/>
				<rect x="213.857" y="149.943" fill="#F1F2F2" width="48.066" height="25.892"/>
				<rect x="216.255" y="185.903" fill="#F1F2F2" width="45.668" height="25.892"/>
				<rect x="217.325" y="221.864" fill="#F1F2F2" width="44.6" height="25.892"/>
				<rect x="220.751" y="257.824" fill="#F1F2F2" width="41.173" height="25.892"/>
				<rect x="229.108" y="293.784" fill="#F1F2F2" width="32.815" height="25.892"/>
				<rect x="232.315" y="329.746" fill="#F1F2F2" width="29.608" height="25.891"/>
				<rect x="232.599" y="365.705" fill="#F1F2F2" width="29.324" height="25.893"/>
				<rect x="237.879" y="401.666" fill="#F1F2F2" width="24.045" height="25.893"/>
				<rect x="238.119" y="437.627" fill="#F1F2F2" width="23.806" height="25.891"/>
				<rect x="238.948" y="473.586" fill="#F1F2F2" width="22.977" height="25.895"/>
				<rect x="239.232" y="509.547" fill="#F1F2F2" width="22.691" height="25.895"/>
				<rect x="245.145" y="545.506" fill="#F1F2F2" width="16.778" height="25.893"/>
				<rect x="245.189" y="581.465" fill="#F1F2F2" width="16.734" height="25.896"/>
			</g>
		</g>
	</g>
</g>
<text transform="matrix(1 0 0 1 343.5833 86.5752)" fill="#756D6D" font-family="'PTSans-Regular'" font-size="12">електроенергетика, електротехніка </text>
<text transform="matrix(1 0 0 1 343.5833 100.9756)" fill="#756D6D" font-family="'PTSans-Regular'" font-size="12">та електромеханіка</text>
<text transform="matrix(1 0 0 1 343.5833 129.0713)" fill="#756D6D" font-family="'PTSans-Regular'" font-size="12">будівництво та цивільна інженерія</text>
<text transform="matrix(1 0 0 1 343.5833 165.9248)" fill="#756D6D" font-family="'PTSans-Regular'" font-size="12">середня освіта</text>
<text transform="matrix(1 0 0 1 343.5833 201.6494)" fill="#756D6D" font-family="'PTSans-Regular'" font-size="12">галузеве машинобудування</text>
<text transform="matrix(1 0 0 1 343.5833 236.1377)" fill="#756D6D" font-family="'PTSans-Regular'" font-size="12">агроінженерія</text>
<text transform="matrix(1 0 0 1 343.5833 374.1465)" fill="#756D6D" font-family="'PTSans-Regular'" font-size="12">фінанси, банківська справа </text>
<text transform="matrix(1 0 0 1 343.5833 386.1465)" fill="#756D6D" font-family="'PTSans-Regular'" font-size="12">та страхування</text>
<text transform="matrix(1 0 0 1 343.5833 271.7402)" fill="#756D6D" font-family="'PTSans-Regular'" font-size="12">комп&apos;ютерні науки</text>
<text transform="matrix(1 0 0 1 343.5833 307.7559)" fill="#756D6D" font-family="'PTSans-Regular'" font-size="12">прикладна механіка</text>
<text transform="matrix(1 0 0 1 343.5833 343.6934)" fill="#756D6D" font-family="'PTSans-Regular'" font-size="12">початкова освіта</text>
<text transform="matrix(1 0 0 1 343.5833 416.0664)" fill="#756D6D" font-family="'PTSans-Regular'" font-size="12">агрономія</text>
<text transform="matrix(1 0 0 1 343.5833 452.1914)" fill="#756D6D" font-family="'PTSans-Regular'" font-size="12">комп’ютерна інженерія</text>
<text transform="matrix(1 0 0 1 343.5833 482.084)" fill="#756D6D" font-family="'PTSans-Regular'" font-size="12">телекомунікації </text>
<text transform="matrix(1 0 0 1 343.5833 492.084)" fill="#756D6D" font-family="'PTSans-Regular'" font-size="12">та радіотехніка</text>
<text transform="matrix(1 0 0 1 343.5833 518.8066)" fill="#756D6D" font-family="'PTSans-Regular'" font-size="12">автоматизація та комп’ютерно-</text>
<text transform="matrix(1 0 0 1 343.5833 529.8066)" fill="#756D6D" font-family="'PTSans-Regular'" font-size="12">інтегровані технології</text>
<text transform="matrix(1 0 0 1 343.5833 559.8789)" fill="#756D6D" font-family="'PTSans-Regular'" font-size="12">дошкільна освіта</text>
<text transform="matrix(1 0 0 1 343.5833 596.5313)" fill="#756D6D" font-family="'PTSans-Regular'" font-size="12">харчові технології</text>
<rect x="304.432" y="84.417" fill="none" width="30.729" height="11.458"/>
<text transform="matrix(1 0 0 1 304.4309 94.0791)" fill="#EC008C" font-family="'PTSans-Regular'" font-size="13">1226</text>
<rect x="304.432" y="119.897" fill="none" width="30.729" height="11.088"/>
<text transform="matrix(1 0 0 1 304.4309 128.9971)" fill="#EC008C" font-family="'PTSans-Regular'" font-size="13">1092</text>
<rect x="304.432" y="157.398" fill="none" width="30.729" height="9.795"/>
<text transform="matrix(1 0 0 1 304.4309 166.2275)" fill="#EC008C" font-family="'PTSans-Regular'" font-size="13">981</text>
<rect x="304.432" y="193.217" fill="none" width="30.729" height="9.601"/>
<text transform="matrix(1 0 0 1 304.4309 202.3184)" fill="#EC008C" font-family="'PTSans-Regular'" font-size="13">798</text>
<rect x="304.432" y="227.567" fill="none" width="30.729" height="9.879"/>
<text transform="matrix(1 0 0 1 304.4309 236.667)" fill="#EC008C" font-family="'PTSans-Regular'" font-size="13">732</text>
<rect x="304.432" y="262.567" fill="none" width="30.729" height="11.088"/>
<text transform="matrix(1 0 0 1 304.4309 271.668)" fill="#EC008C" font-family="'PTSans-Regular'" font-size="13">679</text>
<rect x="304.432" y="299.146" fill="none" width="24" height="9.964"/>
<text transform="matrix(1 0 0 1 304.4309 308.2471)" fill="#EC008C" font-family="'PTSans-Regular'" font-size="13">610</text>
<rect x="304.432" y="335.375" fill="none" width="24" height="9.381"/>
<text transform="matrix(1 0 0 1 304.4309 344.4727)" fill="#EC008C" font-family="'PTSans-Regular'" font-size="13">604</text>
<rect x="304.432" y="371.627" fill="none" width="23.396" height="9.777"/>
<text transform="matrix(1 0 0 1 304.4309 380.7266)" fill="#EC008C" font-family="'PTSans-Regular'" font-size="13">519</text>
<rect x="304.432" y="407.363" fill="none" width="26.272" height="10.146"/>
<text transform="matrix(1 0 0 1 304.4309 416.4629)" fill="#EC008C" font-family="'PTSans-Regular'" font-size="13">502</text>
<rect x="304.432" y="443.018" fill="none" width="25.909" height="11.09"/>
<text transform="matrix(1 0 0 1 304.4309 452.1191)" fill="#EC008C" font-family="'PTSans-Regular'" font-size="13">494</text>
<rect x="304.432" y="478.523" fill="none" width="22.002" height="9.857"/>
<text transform="matrix(1 0 0 1 304.4309 487.625)" fill="#EC008C" font-family="'PTSans-Regular'" font-size="13">472</text>
<rect x="304.432" y="515.896" fill="none" width="22.926" height="9.563"/>
<text transform="matrix(1 0 0 1 304.4309 524.9961)" fill="#EC008C" font-family="'PTSans-Regular'" font-size="13">468</text>
<rect x="302.432" y="550.705" fill="none" width="26.924" height="11.088"/>
<text transform="matrix(1 0 0 1 302.4309 559.8047)" fill="#EC008C" font-family="'PTSans-Regular'" font-size="13">464</text>
<rect x="304.432" y="587.354" fill="none" width="24.729" height="11.093"/>
<text transform="matrix(1 0 0 1 304.4309 596.459)" fill="#EC008C" font-family="'PTSans-Regular'" font-size="13">410</text>
<g>
	<text transform="matrix(1 0 0 1 180.0295 93.7764)" fill="#756D6D" font-family="'PTSans-Regular'" font-size="12">право</text>
</g>
<text transform="matrix(1 0 0 1 95.5505 129.0713)" fill="#756D6D" font-family="'PTSans-Regular'" font-size="12">облік і оподаткування</text>
<text transform="matrix(1 0 0 1 68.2034 157.3975)" fill="#756D6D" font-family="'PTSans-Regular'" font-size="12">фінанси, банківська справа</text>
<text transform="matrix(1 0 0 1 132.7019 171.7979)" fill="#756D6D" font-family="'PTSans-Regular'" font-size="12">та страхування</text>
<text transform="matrix(1 0 0 1 145.6975 201.6494)" fill="#756D6D" font-family="'PTSans-Regular'" font-size="12">менеджмент</text>
<text transform="matrix(1 0 0 1 133.9021 236.1377)" fill="#756D6D" font-family="'PTSans-Regular'" font-size="12">правознавство</text>
<g>
	<text transform="matrix(1 0 0 1 157.6252 380.1445)" fill="#756D6D" font-family="'PTSans-Regular'" font-size="12">економіка</text>
</g>
<text transform="matrix(1 0 0 1 134.1057 271.7402)" fill="#756D6D" font-family="'PTSans-Regular'" font-size="12">середня освіта</text>
<text transform="matrix(1 0 0 1 74.887 299.7559)" fill="#756D6D" font-family="'PTSans-Regular'" font-size="12">підприємництво, торгівля </text>
<text transform="matrix(1 0 0 1 100.0022 314.1563)" fill="#756D6D" font-family="'PTSans-Regular'" font-size="12">та біржова діяльність</text>
<text transform="matrix(1 0 0 1 24.0427 335.375)" fill="#756D6D" font-family="'PTSans-Regular'" font-size="12">електроенергетика, електротехніка </text>
<text transform="matrix(1 0 0 1 108.8938 349.7734)" fill="#756D6D" font-family="'PTSans-Regular'" font-size="12">та електромеханіка</text>
<text transform="matrix(1 0 0 1 122.8982 416.0664)" fill="#756D6D" font-family="'PTSans-Regular'" font-size="12">початкова освіта</text>
<text transform="matrix(1 0 0 1 115.3616 452.1914)" fill="#756D6D" font-family="'PTSans-Regular'" font-size="12">харчові технології</text>
<text transform="matrix(1 0 0 1 121.5901 487.084)" fill="#756D6D" font-family="'PTSans-Regular'" font-size="12">дошкільна освіта</text>
<text transform="matrix(1 0 0 1 92.7664 524.3066)" fill="#756D6D" font-family="'PTSans-Regular'" font-size="12">транспортні технології</text>
<text transform="matrix(1 0 0 1 144.7375 559.8789)" fill="#756D6D" font-family="'PTSans-Regular'" font-size="12">облік і аудит</text>
<text transform="matrix(1 0 0 1 77.407 596.5313)" fill="#756D6D" font-family="'PTSans-Regular'" font-size="12">автомобільний транспорт</text>
<rect x="274.317" y="82.646" fill="#F1F2F2" width="15" height="15"/>
<rect x="274.317" y="117.941" fill="#F1F2F2" width="15" height="15"/>
<rect x="274.317" y="154.796" fill="#F1F2F2" width="15" height="15"/>
<rect x="274.317" y="190.518" fill="#F1F2F2" width="15" height="15"/>
<rect x="272.151" y="192.816" fill="none" width="19.332" height="10.405"/>
<text transform="matrix(1 0 0 1 278.0012 202.6162)" fill="#5B5B5B" font-family="'PTSans-Regular'" font-size="13">4</text>
<rect x="272.151" y="81.146" fill="none" width="19.332" height="18"/>
<text transform="matrix(1 0 0 1 278.0012 94.0791)" fill="#5B5B5B" font-family="'PTSans-Regular'" font-size="13">1</text>
<rect x="273.151" y="120.07" fill="none" width="19.332" height="18"/>
<text transform="matrix(1 0 0 1 279.0012 129.8701)" fill="#5B5B5B" font-family="'PTSans-Regular'" font-size="13">2</text>
<rect x="272.151" y="153.296" fill="none" width="19.332" height="18"/>
<text transform="matrix(1 0 0 1 278.0012 166.2275)" fill="#5B5B5B" font-family="'PTSans-Regular'" font-size="13">3</text>
<rect x="274.317" y="225.007" fill="#F1F2F2" width="15" height="15"/>
<rect x="272.151" y="226.737" fill="none" width="19.332" height="11.539"/>
<text transform="matrix(1 0 0 1 278.0012 236.5381)" fill="#5B5B5B" font-family="'PTSans-Regular'" font-size="13">5</text>
<rect x="274.317" y="260.61" fill="#F1F2F2" width="15" height="15"/>
<rect x="272.151" y="262.728" fill="none" width="19.332" height="10.766"/>
<text transform="matrix(1 0 0 1 278.0012 272.5273)" fill="#5B5B5B" font-family="'PTSans-Regular'" font-size="13">6</text>
<rect x="274.317" y="296.628" fill="#F1F2F2" width="15" height="15"/>
<rect x="272.151" y="298.66" fill="none" width="19.332" height="10.934"/>
<text transform="matrix(1 0 0 1 278.0012 308.46)" fill="#5B5B5B" font-family="'PTSans-Regular'" font-size="13">7</text>
<rect x="274.317" y="332.564" fill="#F1F2F2" width="15" height="15"/>
<rect x="272.151" y="334.887" fill="none" width="19.332" height="10.354"/>
<text transform="matrix(1 0 0 1 278.0012 344.6875)" fill="#5B5B5B" font-family="'PTSans-Regular'" font-size="13">8</text>
<rect x="274.317" y="369.014" fill="#F1F2F2" width="15" height="15"/>
<rect x="272.151" y="371.139" fill="none" width="19.332" height="10.75"/>
<text transform="matrix(1 0 0 1 278.0012 380.9395)" fill="#5B5B5B" font-family="'PTSans-Regular'" font-size="13">9</text>
<rect x="274.317" y="404.938" fill="#F1F2F2" width="15" height="15"/>
<rect x="272.151" y="407.123" fill="none" width="19.332" height="10.629"/>
<text transform="matrix(1 0 0 1 274.1858 416.9219)" fill="#5B5B5B" font-family="'PTSans-Regular'" font-size="13">10</text>
<rect x="274.317" y="441.061" fill="#F1F2F2" width="15" height="15"/>
<rect x="272.151" y="443.148" fill="none" width="19.332" height="10.822"/>
<text transform="matrix(1 0 0 1 274.1858 452.9512)" fill="#5B5B5B" font-family="'PTSans-Regular'" font-size="13">11</text>
<rect x="274.317" y="475.955" fill="#F1F2F2" width="15" height="15"/>
<rect x="272.151" y="478.039" fill="none" width="19.332" height="10.83"/>
<text transform="matrix(1 0 0 1 274.1858 487.8398)" fill="#5B5B5B" font-family="'PTSans-Regular'" font-size="13">12</text>
<rect x="274.317" y="513.176" fill="#F1F2F2" width="15" height="15"/>
<rect x="272.151" y="515.41" fill="none" width="19.332" height="10.531"/>
<text transform="matrix(1 0 0 1 274.1858 525.2109)" fill="#5B5B5B" font-family="'PTSans-Regular'" font-size="13">13</text>
<rect x="274.317" y="548.75" fill="#F1F2F2" width="15" height="15"/>
<rect x="272.151" y="550.219" fill="none" width="19.332" height="12.063"/>
<text transform="matrix(1 0 0 1 274.1858 560.0215)" fill="#5B5B5B" font-family="'PTSans-Regular'" font-size="13">14</text>
<rect x="274.317" y="585.4" fill="#F1F2F2" width="15" height="15"/>
<rect x="272.151" y="587.891" fill="none" width="19.332" height="10.021"/>
<text transform="matrix(1 0 0 1 274.1858 597.6914)" fill="#5B5B5B" font-family="'PTSans-Regular'" font-size="13">15</text>
<rect x="227.097" y="84.417" fill="none" width="30.729" height="11.458"/>
<text transform="matrix(1 0 0 1 229.4846 94.0791)" fill="#EC008C" font-family="'PTSans-Regular'" font-size="13">2612</text>
<rect x="227.097" y="119.897" fill="none" width="30.729" height="11.088"/>
<text transform="matrix(1 0 0 1 229.4846 128.9971)" fill="#EC008C" font-family="'PTSans-Regular'" font-size="13">2251</text>
<rect x="227.097" y="157.398" fill="none" width="30.729" height="9.795"/>
<text transform="matrix(1 0 0 1 229.4846 166.2275)" fill="#EC008C" font-family="'PTSans-Regular'" font-size="13">2203</text>
<rect x="227.097" y="193.217" fill="none" width="30.729" height="9.601"/>
<text transform="matrix(1 0 0 1 227.0979 202.3184)" fill="#EC008C" font-family="'PTSans-Regular'" font-size="13">2093</text>
<rect x="227.097" y="227.567" fill="none" width="30.729" height="9.879"/>
<text transform="matrix(1 0 0 1 229.4846 236.667)" fill="#EC008C" font-family="'PTSans-Regular'" font-size="13">2044</text>
<rect x="227.097" y="263.213" fill="none" width="30.729" height="9.796"/>
<text transform="matrix(1 0 0 1 227.0979 272.3135)" fill="#EC008C" font-family="'PTSans-Regular'" font-size="13">1887</text>
<rect x="223.614" y="299.146" fill="none" width="34.215" height="9.964"/>
<text transform="matrix(1 0 0 1 229.4846 308.2471)" fill="#EC008C" font-family="'PTSans-Regular'" font-size="13">1504</text>
<rect x="225.16" y="335.375" fill="none" width="32.666" height="9.381"/>
<text transform="matrix(1 0 0 1 229.4846 344.4727)" fill="#EC008C" font-family="'PTSans-Regular'" font-size="13">1357</text>
<rect x="225.763" y="371.627" fill="none" width="32.063" height="9.777"/>
<text transform="matrix(1 0 0 1 229.4846 380.7266)" fill="#EC008C" font-family="'PTSans-Regular'" font-size="13">1344</text>
<rect x="222.884" y="407.363" fill="none" width="34.94" height="10.146"/>
<text transform="matrix(1 0 0 1 229.4846 416.4629)" fill="#EC008C" font-family="'PTSans-Regular'" font-size="13">1102</text>
<rect x="227.918" y="443.635" fill="none" width="29.908" height="9.854"/>
<text transform="matrix(1 0 0 1 229.4846 452.7363)" fill="#EC008C" font-family="'PTSans-Regular'" font-size="13">1091</text>
<rect x="227.158" y="478.523" fill="none" width="30.668" height="9.857"/>
<text transform="matrix(1 0 0 1 229.4846 487.625)" fill="#EC008C" font-family="'PTSans-Regular'" font-size="13">1053</text>
<rect x="228.537" y="515.896" fill="none" width="29.288" height="9.563"/>
<text transform="matrix(1 0 0 1 229.4846 524.9961)" fill="#EC008C" font-family="'PTSans-Regular'" font-size="13">1040</text>
<rect x="220.539" y="550.705" fill="none" width="37.286" height="11.088"/>
<text transform="matrix(1 0 0 1 236.571 559.8047)" fill="#EC008C" font-family="'PTSans-Regular'" font-size="13">769</text>
<rect x="226.735" y="587.354" fill="none" width="31.094" height="11.093"/>
<text transform="matrix(1 0 0 1 236.571 596.459)" fill="#EC008C" font-family="'PTSans-Regular'" font-size="13">767</text>
<rect x="97.817" y="31.423" fill="none" width="162" height="11.5"/>
<text transform="matrix(1 0 0 1 134.6018 42.623)" fill="#756D6D" font-family="'PTSans-Regular'" font-size="16">ТОП-15. Контракт</text>
<rect x="302.432" y="33.673" fill="none" width="296.889" height="13.5"/>
<text transform="matrix(1 0 0 1 302.4309 43.873)" fill="#756D6D" font-family="'PTSans-Regular'" font-size="16">ТОП-15. Бюджет</text>
<g>
	<text transform="matrix(1 0 0 1 269.926 71.7373)" fill="#8F9193" font-family="'PTSans-Italic'" font-size="9">місце</text>
</g>
<rect x="113.629" y="66.921" fill="none" width="115.438" height="13"/>
<text transform="matrix(1 0 0 1 148.6936 71.7373)" fill="#8F9193" font-family="'PTSans-Italic'" font-size="9">к-ть молодших спеціалістів</text>
<g>
	<g>
		<path fill="none" stroke="#58595B" stroke-width="0.25" stroke-miterlimit="10" d="M293.626,87.17
			c4.224-4.594,3.967-12.514-0.855-18.498"/>
		<g>
			<path fill="#58595B" d="M292.483,88.24c0.666-0.404,1.552-0.862,2.205-1.063l-0.934-0.165l-0.295-0.782
				C293.298,86.811,292.877,87.623,292.483,88.24z"/>
		</g>
	</g>
</g>
<g>
	<g>
		<path fill="none" stroke="#58595B" stroke-width="0.25" stroke-miterlimit="10" d="M260.284,88.635
			c4.224-4.594,3.967-12.514-0.855-18.498"/>
		<g>
			<path fill="#58595B" d="M259.141,89.705c0.666-0.404,1.552-0.862,2.205-1.063l-0.934-0.165l-0.295-0.782
				C259.956,88.275,259.535,89.087,259.141,89.705z"/>
		</g>
	</g>
</g>
<g>
	<rect x="7.845" y="639.254" fill="none" width="277.605" height="27.384"/>
	<text transform="matrix(1 0 0 1 7.8459 648.3262)" fill="#6D6E71" font-family="'PTSans-Regular'" font-size="12">Дані: Інформаційна система «Конкурс»</text>
	<text transform="matrix(1 0 0 1 7.8459 662.7256)" fill="#6D6E71" font-family="'PTSans-Regular'" font-size="12">станом на кінець вересня 2017 року.</text>
</g>
<g>
	<g>
		<polygon fill="#3A3F4A" points="436.223,649.431 433.157,649.431 433.157,658.112 431.099,658.112 431.099,649.431 
			428.02,649.431 428.02,647.599 436.223,647.599 		"/>
		<polygon fill="#3A3F4A" points="436.987,647.599 443.22,647.599 443.22,649.431 439.044,649.431 439.044,651.88 442.845,651.88 
			442.845,653.714 439.044,653.714 439.044,656.281 443.294,656.281 443.294,658.112 436.987,658.112 		"/>
		<polygon fill="#3A3F4A" points="447.005,652.766 444.077,647.599 446.555,647.599 448.177,650.634 448.538,651.7 448.884,650.634 
			450.579,647.599 452.818,647.599 449.783,652.661 452.968,658.112 450.521,658.112 448.673,654.868 448.266,653.758 
			447.877,654.868 446.015,658.112 443.777,658.112 		"/>
		<polygon fill="#3A3F4A" points="461.394,649.431 458.33,649.431 458.33,658.112 456.273,658.112 456.273,649.431 453.192,649.431 
			453.192,647.599 461.394,647.599 		"/>
		<polygon fill="#3A3F4A" points="465.435,654.207 461.98,647.599 464.428,647.599 466.351,651.549 466.561,652.661 
			466.636,652.661 466.86,651.521 468.723,647.599 470.931,647.599 467.491,654.192 467.491,658.112 465.435,658.112 		"/>
	</g>
	<path fill="#6D6E70" d="M469.46,657.122c0-0.35,0.109-0.629,0.33-0.834c0.221-0.204,0.513-0.309,0.871-0.309
		c0.382,0,0.681,0.104,0.899,0.309s0.329,0.484,0.329,0.834c0,0.352-0.11,0.63-0.329,0.842c-0.22,0.209-0.519,0.314-0.899,0.314
		c-0.358,0-0.65-0.105-0.871-0.314C469.571,657.752,469.46,657.474,469.46,657.122"/>
	<path fill="#6D6E70" d="M472.794,652.856c0-1.754,0.385-3.101,1.156-4.048c0.77-0.944,1.873-1.421,3.303-1.421
		c0.752,0,1.408,0.13,1.968,0.393c0.563,0.26,1.028,0.63,1.397,1.11c0.371,0.48,0.646,1.058,0.825,1.726
		c0.181,0.672,0.271,1.418,0.271,2.24c0,1.752-0.388,3.102-1.162,4.048c-0.776,0.945-1.876,1.421-3.299,1.421
		c-0.76,0-1.42-0.132-1.982-0.392c-0.561-0.26-1.021-0.633-1.391-1.112c-0.365-0.48-0.636-1.059-0.816-1.729
		C472.884,654.425,472.794,653.677,472.794,652.856 M474.956,652.856c0,0.53,0.045,1.02,0.135,1.465
		c0.09,0.444,0.229,0.828,0.415,1.147c0.185,0.321,0.423,0.572,0.712,0.75c0.29,0.183,0.635,0.271,1.035,0.271
		c0.731,0,1.298-0.286,1.697-0.857c0.398-0.569,0.602-1.496,0.602-2.776c0-0.512-0.041-0.986-0.125-1.431
		c-0.088-0.438-0.22-0.823-0.399-1.152c-0.181-0.33-0.417-0.589-0.707-0.774c-0.289-0.184-0.646-0.278-1.066-0.278
		c-0.73,0-1.296,0.293-1.695,0.882C475.156,650.686,474.956,651.604,474.956,652.856"/>
	<path fill="#6D6E70" d="M482.887,647.705c0.231-0.04,0.479-0.079,0.745-0.114c0.266-0.033,0.528-0.061,0.794-0.082
		c0.265-0.02,0.524-0.035,0.772-0.044c0.25-0.01,0.481-0.017,0.694-0.017c0.488,0,0.972,0.046,1.447,0.136
		c0.476,0.091,0.901,0.245,1.275,0.466c0.377,0.221,0.676,0.521,0.901,0.908c0.227,0.385,0.34,0.869,0.34,1.449
		c0,0.86-0.203,1.563-0.604,2.104c-0.4,0.54-0.937,0.917-1.607,1.127l0.736,0.467l2.404,4.009h-2.372l-2.389-4.115l-1.084-0.193
		v4.31h-2.058v-10.409H482.887z M486.04,649.282c-0.211,0-0.418,0.004-0.623,0.015c-0.204,0.009-0.361,0.028-0.474,0.061v3.049
		h0.873c0.57,0,1.025-0.129,1.365-0.392c0.341-0.26,0.508-0.689,0.508-1.289c0-0.451-0.137-0.805-0.419-1.063
		C486.991,649.409,486.581,649.282,486.04,649.282"/>
	<path fill="#6D6E70" d="M494.844,652.632h3.919v4.688c-0.42,0.349-0.922,0.604-1.508,0.765c-0.586,0.161-1.162,0.242-1.734,0.242
		c-0.672,0-1.296-0.107-1.871-0.314c-0.575-0.213-1.072-0.541-1.493-0.985c-0.421-0.445-0.75-1.015-0.992-1.705
		c-0.241-0.691-0.361-1.513-0.361-2.463c0-0.992,0.143-1.834,0.43-2.531c0.285-0.695,0.66-1.262,1.126-1.697
		c0.465-0.434,0.989-0.752,1.569-0.946c0.582-0.193,1.171-0.293,1.774-0.293c0.601,0,1.128,0.045,1.582,0.137
		c0.457,0.09,0.818,0.186,1.091,0.284l-0.422,1.728c-0.248-0.102-0.531-0.176-0.842-0.232c-0.312-0.055-0.704-0.083-1.186-0.083
		c-0.433,0-0.828,0.065-1.188,0.196c-0.36,0.129-0.676,0.345-0.938,0.639c-0.268,0.296-0.472,0.674-0.618,1.133
		c-0.146,0.462-0.218,1.021-0.218,1.685c0,0.63,0.07,1.175,0.209,1.628c0.142,0.456,0.336,0.832,0.588,1.129
		c0.25,0.294,0.541,0.514,0.879,0.652c0.336,0.14,0.691,0.21,1.072,0.21c0.262,0,0.518-0.032,0.768-0.101
		c0.25-0.063,0.459-0.159,0.63-0.291v-1.982l-2.268-0.239L494.844,652.632L494.844,652.632z"/>
	<path fill="#6D6E70" d="M499.71,657.122c0-0.35,0.109-0.629,0.331-0.834c0.221-0.204,0.51-0.309,0.87-0.309
		c0.38,0,0.679,0.104,0.901,0.309c0.22,0.205,0.331,0.484,0.331,0.834c0,0.352-0.111,0.63-0.331,0.842
		c-0.224,0.209-0.521,0.314-0.901,0.314c-0.36,0-0.649-0.105-0.87-0.314C499.821,657.752,499.71,657.474,499.71,657.122"/>
	<path fill="#6D6E70" d="M509.081,647.599h1.953v6.791c0,0.682-0.091,1.265-0.271,1.754c-0.182,0.492-0.432,0.898-0.752,1.218
		c-0.32,0.322-0.711,0.559-1.171,0.708c-0.46,0.148-0.966,0.225-1.517,0.225c-2.663,0-3.995-1.217-3.995-3.646V647.6h2.058v6.64
		c0,0.411,0.037,0.76,0.113,1.047c0.074,0.284,0.19,0.514,0.354,0.688c0.158,0.179,0.357,0.302,0.601,0.377
		c0.237,0.074,0.521,0.113,0.842,0.113c0.629,0,1.086-0.175,1.365-0.527c0.279-0.35,0.42-0.916,0.42-1.696V647.599L509.081,647.599z
		"/>
	<path fill="#6D6E70" d="M517.374,655.786h-3.23l-0.795,2.326h-2.059l3.784-10.588h1.518l3.784,10.588h-2.163L517.374,655.786z
		 M514.667,654.133h2.255l-0.781-2.342l-0.313-1.653h-0.075l-0.315,1.666L514.667,654.133z"/>
</g>
</svg>
