<?xml version="1.0" encoding="utf-8"?>
<!-- Generator: Adobe Illustrator 16.0.0, SVG Export Plug-In . SVG Version: 6.00 Build 0)  -->
<!DOCTYPE svg PUBLIC "-//W3C//DTD SVG 1.1//EN" "http://www.w3.org/Graphics/SVG/1.1/DTD/svg11.dtd">
<svg version="1.1" id="Слой_1" xmlns="http://www.w3.org/2000/svg" xmlns:xlink="http://www.w3.org/1999/xlink" x="0px" y="0px"
	 width="563.971px" height="662.514px" viewBox="0 0 563.971 662.514" enable-background="new 0 0 563.971 662.514"
	 xml:space="preserve">
<g opacity="0.6">
	<g>
		<line fill="none" x1="302.43" y1="612.826" x2="360.251" y2="612.826"/>
		<g>
			<g>
				<line fill="none" x1="302.43" y1="612.826" x2="302.43" y2="599.339"/>
				<line fill="none" x1="313.994" y1="612.826" x2="313.994" y2="599.339"/>
				<line fill="none" x1="325.559" y1="612.826" x2="325.559" y2="599.339"/>
				<line fill="none" x1="337.122" y1="612.826" x2="337.122" y2="599.339"/>
				<line fill="none" x1="348.687" y1="612.826" x2="348.687" y2="599.339"/>
				<line fill="none" x1="360.251" y1="612.826" x2="360.251" y2="599.339"/>
			</g>
		</g>
	</g>
	<g>
		<line fill="none" x1="302.43" y1="612.826" x2="302.43" y2="73.421"/>
		<g>
			<g>
				<line fill="none" x1="302.43" y1="594.843" x2="303.876" y2="594.843"/>
				<line fill="none" x1="302.43" y1="558.882" x2="303.876" y2="558.882"/>
				<line fill="none" x1="302.43" y1="522.923" x2="303.876" y2="522.923"/>
				<line fill="none" x1="302.43" y1="486.964" x2="303.876" y2="486.964"/>
				<line fill="none" x1="302.43" y1="451.003" x2="303.876" y2="451.003"/>
				<line fill="none" x1="302.43" y1="415.044" x2="303.876" y2="415.044"/>
				<line fill="none" x1="302.43" y1="379.083" x2="303.876" y2="379.083"/>
				<line fill="none" x1="302.43" y1="343.123" x2="303.876" y2="343.123"/>
				<line fill="none" x1="302.43" y1="307.163" x2="303.876" y2="307.163"/>
				<line fill="none" x1="302.43" y1="271.201" x2="303.876" y2="271.201"/>
				<line fill="none" x1="302.43" y1="235.241" x2="303.876" y2="235.241"/>
				<line fill="none" x1="302.43" y1="199.281" x2="303.876" y2="199.281"/>
				<line fill="none" x1="302.43" y1="163.32" x2="303.876" y2="163.32"/>
				<line fill="none" x1="302.43" y1="127.36" x2="303.876" y2="127.36"/>
				<line fill="none" x1="302.43" y1="91.401" x2="303.876" y2="91.401"/>
			</g>
		</g>
	</g>
	<g>
		<g>
			<g>
				<rect x="302.43" y="78.456" fill="#F1F2F2" width="26.75" height="25.892"/>
				<rect x="302.43" y="114.416" fill="#F1F2F2" width="23.826" height="25.892"/>
				<rect x="302.43" y="150.376" fill="#F1F2F2" width="21.404" height="25.892"/>
				<rect x="302.43" y="186.337" fill="#F1F2F2" width="17.411" height="25.892"/>
				<rect x="302.43" y="222.297" fill="#F1F2F2" width="15.972" height="25.892"/>
				<rect x="302.43" y="258.256" fill="#F1F2F2" width="14.814" height="25.892"/>
				<rect x="302.43" y="294.216" fill="#F1F2F2" width="13.313" height="25.892"/>
				<rect x="302.43" y="330.176" fill="#F1F2F2" width="13.179" height="25.895"/>
				<rect x="302.43" y="366.137" fill="#F1F2F2" width="11.324" height="25.893"/>
				<rect x="302.43" y="402.098" fill="#F1F2F2" width="10.953" height="25.896"/>
				<rect x="302.43" y="438.056" fill="#F1F2F2" width="10.778" height="25.896"/>
				<rect x="302.43" y="474.017" fill="#F1F2F2" width="10.299" height="25.896"/>
				<rect x="302.43" y="509.98" fill="#F1F2F2" width="10.212" height="25.893"/>
				<rect x="302.43" y="545.939" fill="#F1F2F2" width="10.124" height="25.895"/>
				<rect x="302.43" y="581.898" fill="#F1F2F2" width="8.945" height="25.893"/>
			</g>
		</g>
	</g>
</g>
<g opacity="0.6">
	<g>
		<line fill="none" x1="261.923" y1="612.39" x2="204.104" y2="612.39"/>
		<g>
			<g>
				<line fill="none" x1="261.923" y1="612.39" x2="261.923" y2="598.908"/>
				<line fill="none" x1="252.287" y1="612.39" x2="252.287" y2="598.908"/>
				<line fill="none" x1="242.651" y1="612.39" x2="242.651" y2="598.908"/>
				<line fill="none" x1="233.013" y1="612.39" x2="233.013" y2="598.908"/>
				<line fill="none" x1="223.377" y1="612.39" x2="223.377" y2="598.908"/>
				<line fill="none" x1="213.74" y1="612.39" x2="213.74" y2="598.908"/>
				<line fill="none" x1="204.104" y1="612.39" x2="204.104" y2="598.908"/>
			</g>
		</g>
	</g>
	<g>
		<line fill="none" x1="261.923" y1="612.39" x2="261.923" y2="72.988"/>
		<g>
			<g>
				<line fill="none" x1="261.923" y1="594.414" x2="260.479" y2="594.414"/>
				<line fill="none" x1="261.923" y1="558.453" x2="260.479" y2="558.453"/>
				<line fill="none" x1="261.923" y1="522.492" x2="260.479" y2="522.492"/>
				<line fill="none" x1="261.923" y1="486.533" x2="260.479" y2="486.533"/>
				<line fill="none" x1="261.923" y1="450.572" x2="260.479" y2="450.572"/>
				<line fill="none" x1="261.923" y1="414.611" x2="260.479" y2="414.611"/>
				<line fill="none" x1="261.923" y1="378.652" x2="260.479" y2="378.652"/>
				<line fill="none" x1="261.923" y1="342.691" x2="260.479" y2="342.691"/>
				<line fill="none" x1="261.923" y1="306.731" x2="260.479" y2="306.731"/>
				<line fill="none" x1="261.923" y1="270.77" x2="260.479" y2="270.77"/>
				<line fill="none" x1="261.923" y1="234.809" x2="260.479" y2="234.809"/>
				<line fill="none" x1="261.923" y1="198.849" x2="260.479" y2="198.849"/>
				<line fill="none" x1="261.923" y1="162.888" x2="260.479" y2="162.888"/>
				<line fill="none" x1="261.923" y1="126.928" x2="260.479" y2="126.928"/>
				<line fill="none" x1="261.923" y1="90.968" x2="260.479" y2="90.968"/>
			</g>
		</g>
	</g>
	<g>
		<g>
			<g>
				<rect x="204.932" y="78.024" fill="#F1F2F2" width="56.991" height="25.892"/>
				<rect x="212.809" y="113.984" fill="#F1F2F2" width="49.114" height="25.892"/>
				<rect x="213.857" y="149.943" fill="#F1F2F2" width="48.066" height="25.892"/>
				<rect x="216.255" y="185.903" fill="#F1F2F2" width="45.668" height="25.892"/>
				<rect x="217.325" y="221.864" fill="#F1F2F2" width="44.6" height="25.892"/>
				<rect x="220.751" y="257.824" fill="#F1F2F2" width="41.173" height="25.892"/>
				<rect x="229.108" y="293.784" fill="#F1F2F2" width="32.815" height="25.892"/>
				<rect x="232.315" y="329.746" fill="#F1F2F2" width="29.608" height="25.891"/>
				<rect x="232.599" y="365.705" fill="#F1F2F2" width="29.324" height="25.895"/>
				<rect x="237.879" y="401.666" fill="#F1F2F2" width="24.045" height="25.893"/>
				<rect x="238.119" y="437.626" fill="#F1F2F2" width="23.806" height="25.891"/>
				<rect x="238.948" y="473.585" fill="#F1F2F2" width="22.977" height="25.896"/>
				<rect x="239.232" y="509.546" fill="#F1F2F2" width="22.691" height="25.896"/>
				<rect x="245.145" y="545.505" fill="#F1F2F2" width="16.778" height="25.896"/>
				<rect x="245.189" y="581.464" fill="#F1F2F2" width="16.734" height="25.896"/>
			</g>
		</g>
	</g>
</g>
<text transform="matrix(1 0 0 1 343.5833 86.5752)" fill="#756D6D" font-family="'Georgia'" font-size="12">електроенергетика, електротехніка </text>
<text transform="matrix(1 0 0 1 343.5833 100.9756)" fill="#756D6D" font-family="'Georgia'" font-size="12">та електромеханіка</text>
<text transform="matrix(1 0 0 1 343.5833 129.0713)" fill="#756D6D" font-family="'Georgia'" font-size="12">будівництво та цивільна інженерія</text>
<text transform="matrix(1 0 0 1 343.5833 165.9248)" fill="#756D6D" font-family="'Georgia'" font-size="12">середня освіта</text>
<text transform="matrix(1 0 0 1 343.5833 201.6494)" fill="#756D6D" font-family="'Georgia'" font-size="12">галузеве машинобудування</text>
<text transform="matrix(1 0 0 1 343.5833 236.1377)" fill="#756D6D" font-family="'Georgia'" font-size="12">агроінженерія</text>
<text transform="matrix(1 0 0 1 343.5833 374.1475)" fill="#756D6D" font-family="'Georgia'" font-size="12">фінанси, банківська справа </text>
<text transform="matrix(1 0 0 1 343.5833 386.1475)" fill="#756D6D" font-family="'Georgia'" font-size="12">та страхування</text>
<text transform="matrix(1 0 0 1 343.5833 271.7402)" fill="#756D6D" font-family="'Georgia'" font-size="12">комп&apos;ютерні науки</text>
<text transform="matrix(1 0 0 1 343.5833 307.7559)" fill="#756D6D" font-family="'Georgia'" font-size="12">прикладна механіка</text>
<text transform="matrix(1 0 0 1 343.5833 343.6934)" fill="#756D6D" font-family="'Georgia'" font-size="12">початкова освіта</text>
<text transform="matrix(1 0 0 1 343.5833 416.0684)" fill="#756D6D" font-family="'Georgia'" font-size="12">агрономія</text>
<text transform="matrix(1 0 0 1 343.5833 452.1934)" fill="#756D6D" font-family="'Georgia'" font-size="12">комп’ютерна інженерія</text>
<text transform="matrix(1 0 0 1 343.5833 482.085)" fill="#756D6D" font-family="'Georgia'" font-size="12">телекомунікації </text>
<text transform="matrix(1 0 0 1 343.5833 492.085)" fill="#756D6D" font-family="'Georgia'" font-size="12">та радіотехніка</text>
<text transform="matrix(1 0 0 1 343.5833 518.8076)" fill="#756D6D" font-family="'Georgia'" font-size="12">автоматизація та комп’ютерно-</text>
<text transform="matrix(1 0 0 1 343.5833 529.8076)" fill="#756D6D" font-family="'Georgia'" font-size="12">інтегровані технології</text>
<text transform="matrix(1 0 0 1 343.5833 559.8799)" fill="#756D6D" font-family="'Georgia'" font-size="12">дошкільна освіта</text>
<text transform="matrix(1 0 0 1 343.5833 596.5313)" fill="#756D6D" font-family="'Georgia'" font-size="12">харчові технології</text>
<rect x="304.432" y="84.417" fill="none" width="30.729" height="11.458"/>
<text transform="matrix(1 0 0 1 304.4309 94.0791)" fill="#EC008C" font-family="'Georgia'" font-size="13">1226</text>
<rect x="304.432" y="119.897" fill="none" width="30.729" height="11.088"/>
<text transform="matrix(1 0 0 1 304.4309 128.999)" fill="#EC008C" font-family="'Georgia'" font-size="13">1092</text>
<rect x="304.432" y="157.398" fill="none" width="30.729" height="9.795"/>
<text transform="matrix(1 0 0 1 304.4309 166.2275)" fill="#EC008C" font-family="'Georgia'" font-size="13">981</text>
<rect x="304.432" y="193.217" fill="none" width="30.729" height="9.601"/>
<text transform="matrix(1 0 0 1 304.4309 202.3184)" fill="#EC008C" font-family="'Georgia'" font-size="13">798</text>
<rect x="304.432" y="227.567" fill="none" width="30.729" height="9.879"/>
<text transform="matrix(1 0 0 1 304.4309 236.667)" fill="#EC008C" font-family="'Georgia'" font-size="13">732</text>
<rect x="304.432" y="262.567" fill="none" width="30.729" height="11.088"/>
<text transform="matrix(1 0 0 1 304.4309 271.6689)" fill="#EC008C" font-family="'Georgia'" font-size="13">679</text>
<rect x="304.432" y="299.146" fill="none" width="24" height="9.964"/>
<text transform="matrix(1 0 0 1 304.4309 308.248)" fill="#EC008C" font-family="'Georgia'" font-size="13">610</text>
<rect x="304.432" y="335.375" fill="none" width="24" height="9.381"/>
<text transform="matrix(1 0 0 1 304.4309 344.4727)" fill="#EC008C" font-family="'Georgia'" font-size="13">604</text>
<rect x="304.432" y="371.626" fill="none" width="23.396" height="9.776"/>
<text transform="matrix(1 0 0 1 304.4309 380.7275)" fill="#EC008C" font-family="'Georgia'" font-size="13">519</text>
<rect x="304.432" y="407.363" fill="none" width="26.272" height="10.146"/>
<text transform="matrix(1 0 0 1 304.4309 416.4648)" fill="#EC008C" font-family="'Georgia'" font-size="13">502</text>
<rect x="304.432" y="443.017" fill="none" width="25.909" height="11.093"/>
<text transform="matrix(1 0 0 1 304.4309 452.1191)" fill="#EC008C" font-family="'Georgia'" font-size="13">494</text>
<rect x="304.432" y="478.523" fill="none" width="22.002" height="9.856"/>
<text transform="matrix(1 0 0 1 304.4309 487.627)" fill="#EC008C" font-family="'Georgia'" font-size="13">472</text>
<rect x="304.432" y="515.896" fill="none" width="22.926" height="9.563"/>
<text transform="matrix(1 0 0 1 304.4309 524.998)" fill="#EC008C" font-family="'Georgia'" font-size="13">468</text>
<rect x="302.432" y="550.705" fill="none" width="26.924" height="11.088"/>
<text transform="matrix(1 0 0 1 302.4309 559.8066)" fill="#EC008C" font-family="'Georgia'" font-size="13">464</text>
<rect x="304.432" y="587.354" fill="none" width="24.729" height="11.093"/>
<text transform="matrix(1 0 0 1 304.4309 596.46)" fill="#EC008C" font-family="'Georgia'" font-size="13">410</text>
<g>
	<text transform="matrix(1 0 0 1 181.969 94.7783)" fill="#756D6D" font-family="'Georgia'" font-size="12">право</text>
</g>
<text transform="matrix(1 0 0 1 90.8733 130.0713)" fill="#756D6D" font-family="'Georgia'" font-size="12">облік і оподаткування</text>
<text transform="matrix(1 0 0 1 61.6467 158.3975)" fill="#756D6D" font-family="'Georgia'" font-size="12">фінанси, банківська справа</text>
<text transform="matrix(1 0 0 1 130.7698 172.7979)" fill="#756D6D" font-family="'Georgia'" font-size="12">та страхування</text>
<text transform="matrix(1 0 0 1 143.4358 202.6494)" fill="#756D6D" font-family="'Georgia'" font-size="12">менеджмент</text>
<text transform="matrix(1 0 0 1 132.9319 237.1377)" fill="#756D6D" font-family="'Georgia'" font-size="12">правознавство</text>
<g>
	<text transform="matrix(1 0 0 1 157.3538 381.1445)" fill="#756D6D" font-family="'Georgia'" font-size="12">економіка</text>
</g>
<text transform="matrix(1 0 0 1 134.0334 272.7402)" fill="#756D6D" font-family="'Georgia'" font-size="12">середня освіта</text>
<text transform="matrix(1 0 0 1 67.6057 300.7559)" fill="#756D6D" font-family="'Georgia'" font-size="12">підприємництво, торгівля</text>
<text transform="matrix(1 0 0 1 94.5696 315.1563)" fill="#756D6D" font-family="'Georgia'" font-size="12">та біржова діяльність</text>
<text transform="matrix(1 0 0 1 16.8284 336.377)" fill="#756D6D" font-family="'Georgia'" font-size="12">електроенергетика, електротехніка</text>
<text transform="matrix(1 0 0 1 106.0491 350.7734)" fill="#756D6D" font-family="'Georgia'" font-size="12">та електромеханіка</text>
<text transform="matrix(1 0 0 1 120.9377 417.0684)" fill="#756D6D" font-family="'Georgia'" font-size="12">початкова освіта</text>
<text transform="matrix(1 0 0 1 112.8167 453.1934)" fill="#756D6D" font-family="'Georgia'" font-size="12">харчові технології</text>
<text transform="matrix(1 0 0 1 118.5706 488.085)" fill="#756D6D" font-family="'Georgia'" font-size="12">дошкільна освіта</text>
<text transform="matrix(1 0 0 1 86.5256 525.3076)" fill="#756D6D" font-family="'Georgia'" font-size="12">транспортні технології</text>
<text transform="matrix(1 0 0 1 143.4006 560.8799)" fill="#756D6D" font-family="'Georgia'" font-size="12">облік і аудит</text>
<text transform="matrix(1 0 0 1 69.6604 597.5313)" fill="#756D6D" font-family="'Georgia'" font-size="12">автомобільний транспорт</text>
<rect x="272.151" y="192.816" fill="none" width="19.332" height="10.405"/>
<text transform="matrix(1 0 0 1 278.0012 202.6162)" fill="#A39F9F" font-family="'Georgia'" font-size="13">4</text>
<rect x="272.151" y="81.146" fill="none" width="19.332" height="18"/>
<text transform="matrix(1 0 0 1 278.0012 94.0791)" fill="#A39F9F" font-family="'Georgia'" font-size="13">1</text>
<rect x="273.151" y="120.07" fill="none" width="19.332" height="18"/>
<text transform="matrix(1 0 0 1 279.0012 129.8701)" fill="#A39F9F" font-family="'Georgia'" font-size="13">2</text>
<text transform="matrix(1 0 0 1 278.0012 166.2275)" fill="#A39F9F" font-family="'Georgia'" font-size="13">3</text>
<rect x="272.151" y="226.737" fill="none" width="19.332" height="11.539"/>
<text transform="matrix(1 0 0 1 278.0012 236.54)" fill="#A39F9F" font-family="'Georgia'" font-size="13">5</text>
<rect x="272.151" y="262.728" fill="none" width="19.332" height="10.766"/>
<g>
	<text transform="matrix(1 0 0 1 278.0012 272.5273)" fill="#A39F9F" font-family="'Georgia'" font-size="13">6</text>
</g>
<rect x="272.151" y="298.66" fill="none" width="19.332" height="10.934"/>
<g>
	<text transform="matrix(1 0 0 1 278.0012 308.46)" fill="#A39F9F" font-family="'Georgia'" font-size="13">7</text>
</g>
<rect x="272.151" y="334.887" fill="none" width="19.332" height="10.354"/>
<g>
	<text transform="matrix(1 0 0 1 278.0012 344.6895)" fill="#A39F9F" font-family="'Georgia'" font-size="13">8</text>
</g>
<rect x="272.151" y="371.139" fill="none" width="19.332" height="10.75"/>
<g>
	<text transform="matrix(1 0 0 1 278.0012 380.9395)" fill="#A39F9F" font-family="'Georgia'" font-size="13">9</text>
</g>
<rect x="272.151" y="407.123" fill="none" width="19.332" height="10.629"/>
<text transform="matrix(1 0 0 1 274.1858 416.9229)" fill="#A39F9F" font-family="'Georgia'" font-size="13">10</text>
<rect x="272.151" y="443.148" fill="none" width="19.332" height="10.821"/>
<text transform="matrix(1 0 0 1 274.1858 452.9521)" fill="#A39F9F" font-family="'Georgia'" font-size="13">11</text>
<rect x="272.151" y="478.039" fill="none" width="19.332" height="10.83"/>
<text transform="matrix(1 0 0 1 274.1858 487.8398)" fill="#A39F9F" font-family="'Georgia'" font-size="13">12</text>
<rect x="272.151" y="515.41" fill="none" width="19.332" height="10.531"/>
<text transform="matrix(1 0 0 1 274.1858 525.2119)" fill="#A39F9F" font-family="'Georgia'" font-size="13">13</text>
<rect x="272.151" y="550.218" fill="none" width="19.332" height="12.064"/>
<text transform="matrix(1 0 0 1 274.1858 560.0225)" fill="#A39F9F" font-family="'Georgia'" font-size="13">14</text>
<rect x="272.151" y="587.89" fill="none" width="19.332" height="10.021"/>
<text transform="matrix(1 0 0 1 274.1858 597.6924)" fill="#A39F9F" font-family="'Georgia'" font-size="13">15</text>
<rect x="227.097" y="84.417" fill="none" width="30.729" height="11.458"/>
<text transform="matrix(1 0 0 1 229.4846 94.0791)" fill="#EC008C" font-family="'Georgia'" font-size="13">2612</text>
<rect x="227.097" y="119.897" fill="none" width="30.729" height="11.088"/>
<text transform="matrix(1 0 0 1 229.4846 128.999)" fill="#EC008C" font-family="'Georgia'" font-size="13">2251</text>
<rect x="227.097" y="157.398" fill="none" width="30.729" height="9.795"/>
<text transform="matrix(1 0 0 1 229.4846 166.2275)" fill="#EC008C" font-family="'Georgia'" font-size="13">2203</text>
<rect x="227.097" y="193.217" fill="none" width="30.729" height="9.601"/>
<text transform="matrix(1 0 0 1 227.0979 202.3184)" fill="#EC008C" font-family="'Georgia'" font-size="13">2093</text>
<rect x="227.097" y="227.567" fill="none" width="30.729" height="9.879"/>
<text transform="matrix(1 0 0 1 229.4846 236.667)" fill="#EC008C" font-family="'Georgia'" font-size="13">2044</text>
<rect x="227.097" y="263.213" fill="none" width="30.729" height="9.796"/>
<text transform="matrix(1 0 0 1 227.0979 272.3145)" fill="#EC008C" font-family="'Georgia'" font-size="13">1887</text>
<rect x="223.614" y="299.146" fill="none" width="34.218" height="9.964"/>
<text transform="matrix(1 0 0 1 229.4846 308.248)" fill="#EC008C" font-family="'Georgia'" font-size="13">1504</text>
<rect x="225.16" y="335.375" fill="none" width="32.666" height="9.381"/>
<text transform="matrix(1 0 0 1 229.4846 344.4727)" fill="#EC008C" font-family="'Georgia'" font-size="13">1357</text>
<rect x="225.763" y="371.626" fill="none" width="32.063" height="9.776"/>
<text transform="matrix(1 0 0 1 229.4846 380.7275)" fill="#EC008C" font-family="'Georgia'" font-size="13">1344</text>
<rect x="222.884" y="407.363" fill="none" width="34.94" height="10.146"/>
<text transform="matrix(1 0 0 1 229.4846 416.4648)" fill="#EC008C" font-family="'Georgia'" font-size="13">1102</text>
<rect x="227.918" y="443.634" fill="none" width="29.908" height="9.855"/>
<text transform="matrix(1 0 0 1 229.4846 452.7363)" fill="#EC008C" font-family="'Georgia'" font-size="13">1091</text>
<rect x="227.158" y="478.523" fill="none" width="30.668" height="9.856"/>
<text transform="matrix(1 0 0 1 229.4846 487.627)" fill="#EC008C" font-family="'Georgia'" font-size="13">1053</text>
<rect x="228.537" y="515.896" fill="none" width="29.288" height="9.563"/>
<text transform="matrix(1 0 0 1 229.4846 524.998)" fill="#EC008C" font-family="'Georgia'" font-size="13">1040</text>
<rect x="220.539" y="550.705" fill="none" width="37.286" height="11.088"/>
<text transform="matrix(1 0 0 1 236.571 559.8066)" fill="#EC008C" font-family="'Georgia'" font-size="13">769</text>
<rect x="226.735" y="587.354" fill="none" width="31.097" height="11.093"/>
<text transform="matrix(1 0 0 1 236.571 596.46)" fill="#EC008C" font-family="'Georgia'" font-size="13">767</text>
<g>
	<text transform="matrix(1 0 0 1 278.0012 108.7598)" fill="#666666" font-family="'Georgia-Italic'" font-size="9">місце</text>
</g>
<g>
	<text transform="matrix(1 0 0 1 208.7747 67.5854)" fill="#666666" font-family="'Georgia-Italic'" font-size="9">к-ть молодших спеціалістів</text>
</g>
<g>
	<g>
		<path fill="none" stroke="#58595B" stroke-width="0.25" stroke-miterlimit="10" d="M276.916,87.695
			c-4.822,5.984-5.079,13.904-0.855,18.498"/>
		<g>
			<path fill="#58595B" d="M276.228,105.253l-0.295,0.782l-0.934,0.165c0.65,0.201,1.539,0.659,2.205,1.063
				C276.81,106.646,276.389,105.834,276.228,105.253z"/>
		</g>
	</g>
</g>
<g>
	<g>
		<path fill="none" stroke="#58595B" stroke-width="0.25" stroke-miterlimit="10" d="M263.971,88.635
			c4.224-4.594,6.035-20.538,16.632-20.038"/>
		<g>
			<path fill="#58595B" d="M262.828,89.705c0.666-0.404,1.552-0.862,2.205-1.063l-0.934-0.165l-0.295-0.782
				C263.643,88.275,263.222,89.087,262.828,89.705z"/>
		</g>
	</g>
</g>
<g>
	<g>
		<path fill="none" stroke="#58595B" stroke-width="0.25" stroke-miterlimit="10" d="M281.986,68.597
			c10.598-0.5,12.408,15.444,16.631,20.038"/>
		<g>
			<path fill="#58595B" d="M298.784,87.695l-0.295,0.782l-0.934,0.165c0.652,0.201,1.539,0.659,2.205,1.063
				C299.366,89.087,298.945,88.275,298.784,87.695z"/>
		</g>
	</g>
</g>
<g>
	<text transform="matrix(1 0 0 1 17.594 642.2871)" fill="#6D6E71" font-family="'Georgia'" font-size="11">Дані: Інформаційна система «Конкурс» станом на кінець вересня 2017 року</text>
</g>
<g>
	<g>
		<polygon fill="#3A3F4A" points="432.698,635.738 429.633,635.738 429.633,644.421 427.574,644.421 427.574,635.738 
			424.495,635.738 424.495,633.906 432.698,633.906 		"/>
		<polygon fill="#3A3F4A" points="433.462,633.906 439.696,633.906 439.696,635.738 435.52,635.738 435.52,638.188 439.321,638.188 
			439.321,640.021 435.52,640.021 435.52,642.589 439.77,642.589 439.77,644.421 433.462,644.421 		"/>
		<polygon fill="#3A3F4A" points="443.481,639.072 440.553,633.906 443.031,633.906 444.653,636.941 445.014,638.009 
			445.36,636.941 447.055,633.906 449.293,633.906 446.259,638.97 449.444,644.421 446.996,644.421 445.149,641.177 
			444.741,640.064 444.353,641.177 442.49,644.421 440.252,644.421 		"/>
		<polygon fill="#3A3F4A" points="457.869,635.738 454.806,635.738 454.806,644.421 452.748,644.421 452.748,635.738 
			449.667,635.738 449.667,633.906 457.869,633.906 		"/>
		<polygon fill="#3A3F4A" points="461.91,640.515 458.455,633.906 460.904,633.906 462.826,637.855 463.036,638.97 463.112,638.97 
			463.335,637.828 465.198,633.906 467.406,633.906 463.967,640.501 463.967,644.421 461.91,644.421 		"/>
	</g>
	<path fill="#6D6E70" d="M465.936,643.431c0-0.35,0.106-0.629,0.33-0.834c0.221-0.205,0.513-0.31,0.871-0.31
		c0.382,0,0.681,0.104,0.896,0.31s0.329,0.484,0.329,0.834c0,0.352-0.11,0.629-0.329,0.842c-0.22,0.209-0.519,0.314-0.896,0.314
		c-0.358,0-0.65-0.105-0.871-0.314C466.046,644.059,465.936,643.781,465.936,643.431"/>
	<path fill="#6D6E70" d="M469.27,639.165c0-1.757,0.385-3.103,1.156-4.05c0.77-0.942,1.873-1.422,3.303-1.422
		c0.752,0,1.408,0.131,1.968,0.396c0.563,0.26,1.028,0.629,1.397,1.108c0.371,0.48,0.646,1.06,0.822,1.728
		c0.184,0.672,0.271,1.418,0.271,2.24c0,1.752-0.388,3.102-1.162,4.047c-0.776,0.944-1.876,1.422-3.299,1.422
		c-0.76,0-1.42-0.133-1.982-0.394c-0.561-0.26-1.021-0.633-1.391-1.11c-0.365-0.48-0.636-1.062-0.816-1.73
		C469.36,640.732,469.27,639.984,469.27,639.165 M471.432,639.165c0,0.528,0.045,1.02,0.135,1.465
		c0.09,0.442,0.229,0.828,0.415,1.146c0.185,0.32,0.423,0.572,0.712,0.75c0.29,0.185,0.635,0.271,1.035,0.271
		c0.729,0,1.298-0.287,1.697-0.857c0.396-0.567,0.602-1.496,0.602-2.774c0-0.515-0.041-0.986-0.125-1.433
		c-0.088-0.438-0.22-0.824-0.399-1.151c-0.181-0.33-0.417-0.591-0.707-0.773c-0.286-0.184-0.646-0.279-1.063-0.279
		c-0.73,0-1.296,0.293-1.695,0.886C471.632,636.992,471.432,637.912,471.432,639.165"/>
	<path fill="#6D6E70" d="M479.363,634.013c0.231-0.039,0.479-0.078,0.745-0.113c0.266-0.033,0.528-0.061,0.794-0.082
		c0.265-0.02,0.524-0.032,0.772-0.045c0.25-0.01,0.479-0.016,0.691-0.016c0.488,0,0.972,0.045,1.447,0.135
		c0.476,0.092,0.899,0.246,1.272,0.467c0.378,0.224,0.679,0.521,0.901,0.908c0.229,0.385,0.34,0.869,0.34,1.449
		c0,0.858-0.203,1.563-0.604,2.104c-0.4,0.539-0.938,0.916-1.607,1.127l0.736,0.47l2.402,4.01h-2.37l-2.392-4.115l-1.084-0.192
		v4.311h-2.058v-10.41h0.006v-0.004h0.006V634.013z M482.516,635.591c-0.211,0-0.418,0.004-0.623,0.014
		c-0.204,0.01-0.361,0.029-0.477,0.064v3.049h0.873c0.57,0,1.025-0.129,1.365-0.396c0.341-0.26,0.508-0.688,0.508-1.289
		c0-0.448-0.137-0.805-0.419-1.063C483.467,635.718,483.057,635.591,482.516,635.591"/>
	<path fill="#6D6E70" d="M491.32,638.939h3.919v4.688c-0.42,0.35-0.922,0.604-1.508,0.766c-0.586,0.16-1.162,0.242-1.734,0.242
		c-0.672,0-1.296-0.107-1.871-0.314c-0.572-0.213-1.069-0.541-1.49-0.981c-0.424-0.445-0.75-1.019-0.992-1.705
		c-0.241-0.691-0.361-1.517-0.361-2.463c0-0.992,0.145-1.834,0.43-2.531c0.285-0.695,0.66-1.262,1.126-1.697
		c0.468-0.434,0.989-0.752,1.569-0.947c0.582-0.19,1.171-0.293,1.774-0.293c0.601,0,1.128,0.045,1.582,0.14
		c0.457,0.09,0.815,0.186,1.091,0.282l-0.422,1.729c-0.248-0.102-0.531-0.176-0.845-0.232c-0.312-0.055-0.701-0.084-1.186-0.084
		c-0.433,0-0.828,0.066-1.188,0.197c-0.357,0.129-0.676,0.344-0.938,0.64c-0.268,0.299-0.472,0.676-0.618,1.135
		c-0.146,0.463-0.218,1.02-0.218,1.686c0,0.629,0.07,1.174,0.209,1.627c0.142,0.457,0.336,0.832,0.588,1.129
		c0.25,0.295,0.541,0.517,0.879,0.652c0.336,0.141,0.691,0.211,1.072,0.211c0.262,0,0.518-0.033,0.768-0.102
		c0.25-0.064,0.459-0.158,0.63-0.291v-1.982l-2.268-0.238L491.32,638.939L491.32,638.939z"/>
	<path fill="#6D6E70" d="M496.186,643.431c0-0.35,0.106-0.629,0.331-0.834c0.221-0.205,0.51-0.31,0.87-0.31
		c0.38,0,0.679,0.104,0.898,0.31c0.222,0.205,0.331,0.484,0.331,0.834c0,0.352-0.109,0.629-0.331,0.842
		c-0.224,0.209-0.521,0.314-0.898,0.314c-0.36,0-0.649-0.105-0.87-0.314C496.296,644.059,496.186,643.781,496.186,643.431"/>
	<path fill="#6D6E70" d="M505.557,633.906h1.953v6.791c0,0.683-0.094,1.267-0.271,1.754c-0.182,0.492-0.432,0.898-0.752,1.22
		s-0.711,0.559-1.171,0.707c-0.46,0.147-0.966,0.225-1.517,0.225c-2.663,0-3.995-1.217-3.995-3.645v-7.052h2.058v6.642
		c0,0.412,0.037,0.76,0.113,1.047c0.074,0.285,0.188,0.514,0.354,0.688c0.158,0.183,0.357,0.306,0.604,0.377
		c0.234,0.074,0.521,0.113,0.842,0.113c0.629,0,1.086-0.174,1.365-0.525c0.276-0.352,0.42-0.916,0.42-1.694L505.557,633.906
		L505.557,633.906z"/>
	<path fill="#6D6E70" d="M513.85,642.095h-3.23l-0.795,2.326h-2.059l3.784-10.588h1.518l3.784,10.588h-2.163L513.85,642.095z
		 M511.143,640.439h2.255l-0.781-2.342l-0.313-1.652h-0.075l-0.315,1.666L511.143,640.439z"/>
</g>
<rect x="178.418" y="27.846" fill="none" width="84.667" height="15.667"/>
<text transform="matrix(1 0 0 1 196.925 39.186)" fill="#756D6D" font-family="'Georgia'" font-size="15">Контракт</text>
<rect x="301.25" y="27.846" fill="none" width="84.667" height="15.667"/>
<text transform="matrix(1 0 0 1 301.2502 39.186)" fill="#756D6D" font-family="'Georgia'" font-size="15">Бюджет</text>
</svg>
